{"glyphs":{"0":{"ha":1113,"x_min":113,"x_max":1004,"o":"m 1000 585 l 1000 585 q 890 186 1004 349 q 589 10 775 24 l 589 10 q 270 132 400 -4 q 117 490 140 268 l 117 490 q 113 585 113 538 l 113 585 q 203 931 113 793 l 203 931 q 513 1111 307 1090 l 513 1111 q 551 1113 532 1113 l 551 1113 q 869 950 738 1113 l 869 950 q 1000 585 997 794 z m 392 515 l 392 515 q 581 342 419 325 l 581 342 q 688 401 647 349 l 688 401 q 726 553 733 458 l 726 553 q 549 781 711 781 l 549 781 q 517 778 533 781 l 517 778 q 386 589 386 761 l 386 589 q 392 515 386 554 z "},"1":{"ha":1113,"x_min":310,"x_max":801,"o":"m 801 19 l 526 -4 q 464 732 526 -6 l 464 732 q 311 922 465 732 l 311 922 q 711 1101 310 922 l 711 1101 q 801 19 756 560 l 801 19 z "},"2":{"ha":1113,"x_min":85,"x_max":1029,"o":"m 1029 250 l 956 1 q 85 43 894 -1 l 85 43 q 403 315 249 158 l 403 315 q 624 668 617 533 l 624 668 q 469 846 633 846 l 469 846 q 250 804 386 846 l 250 804 l 128 1026 q 501 1106 336 1106 l 501 1106 q 856 957 733 1106 l 856 957 q 942 703 953 839 l 942 703 q 892 515 933 600 l 892 515 q 799 379 860 451 l 799 379 q 697 265 749 322 l 697 265 l 1029 250 z "},"3":{"ha":1113,"x_min":168,"x_max":946,"o":"m 210 4 l 217 271 q 375 264 392 264 l 375 264 q 583 354 582 264 l 583 354 q 482 450 586 450 l 482 450 q 374 433 440 450 l 374 433 q 283 413 329 424 l 283 413 l 247 651 q 379 679 276 650 l 379 679 q 513 768 514 717 l 513 768 q 433 864 507 864 l 433 864 q 335 840 399 864 l 335 840 q 219 793 278 817 l 219 793 l 168 1024 q 500 1108 324 1108 l 500 1108 q 733 1049 643 1108 l 733 1049 q 839 860 833 983 l 839 860 q 825 749 842 806 l 825 749 q 750 644 803 668 l 750 644 q 928 475 885 642 l 928 475 q 944 310 946 406 l 944 310 q 825 97 936 168 l 825 97 q 557 21 736 40 l 557 21 q 210 4 489 14 l 210 4 z "},"4":{"ha":1113,"x_min":54,"x_max":1058,"o":"m 854 4 l 561 24 q 575 249 561 36 l 575 249 l 54 285 l 85 536 l 585 1110 l 933 1083 l 896 535 l 1058 525 l 1004 232 l 869 242 q 854 4 857 21 l 854 4 z m 656 532 l 653 792 l 383 546 l 656 532 z "},"5":{"ha":1113,"x_min":146,"x_max":968,"o":"m 146 15 l 260 311 q 419 304 372 304 l 419 304 q 557 328 518 304 l 557 328 q 607 418 601 351 l 607 418 q 272 601 619 563 l 272 601 l 313 1106 q 940 1050 622 1082 l 940 1050 l 917 799 l 622 822 l 611 782 q 897 636 807 742 l 897 636 q 968 444 968 556 l 968 444 q 964 400 968 422 l 964 400 q 826 118 939 211 l 826 118 q 386 0 686 0 l 386 0 q 146 15 276 0 l 146 15 z "},"6":{"ha":1113,"x_min":144,"x_max":971,"o":"m 593 1106 l 788 922 q 717 882 751 901 l 717 882 q 607 774 647 842 l 607 774 q 883 642 782 774 l 883 642 q 968 379 971 528 l 968 379 q 840 114 965 228 q 554 0 715 0 l 554 0 q 285 75 371 1 l 285 75 q 185 206 225 125 q 146 361 144 288 l 146 361 q 265 785 147 578 l 265 785 q 593 1106 392 1001 l 593 1106 z m 576 269 l 576 269 q 667 310 631 269 q 703 414 703 350 l 703 414 q 656 518 703 489 l 656 518 q 549 539 619 540 l 549 539 q 481 505 513 538 q 449 426 449 472 l 449 426 q 483 314 449 358 q 576 269 518 269 z "},"7":{"ha":1113,"x_min":97,"x_max":1015,"o":"m 569 -7 l 260 111 q 435 453 283 151 l 435 453 q 599 786 583 750 l 599 786 l 197 788 l 97 1099 q 1015 1094 925 1099 l 1015 1094 l 994 1019 q 776 500 944 903 l 776 500 q 569 -7 593 60 l 569 -7 z "},"8":{"ha":1113,"x_min":144,"x_max":968,"o":"m 144 315 l 144 315 q 204 481 144 397 l 204 481 q 332 596 258 557 l 332 596 q 217 804 217 646 l 217 804 q 289 996 217 914 l 289 996 q 551 1101 381 1099 l 551 1101 q 793 1000 694 1103 l 793 1000 q 872 832 878 913 l 872 832 q 872 771 872 801 l 872 771 q 854 678 871 717 l 854 678 q 782 601 832 624 l 782 601 q 917 501 867 568 l 917 501 q 968 340 968 431 l 968 340 q 889 118 968 211 l 889 118 q 574 -4 785 -4 l 574 -4 q 249 97 367 -4 l 249 97 q 144 315 144 185 z m 657 371 l 657 371 q 627 454 657 424 q 557 485 597 485 l 557 485 q 480 451 508 485 q 451 365 451 417 l 451 365 q 481 288 451 318 q 554 258 511 258 l 554 258 q 627 288 597 258 q 657 371 657 317 z m 469 764 l 469 764 q 494 700 469 726 q 553 674 518 674 l 553 674 q 615 699 589 674 q 640 768 640 724 l 640 768 q 558 858 640 858 l 558 858 q 493 832 517 858 q 469 764 469 806 z "},"9":{"ha":1113,"x_min":119,"x_max":993,"o":"m 322 -6 l 140 201 q 461 390 354 274 l 461 390 q 197 508 286 414 l 197 508 q 119 717 119 593 l 119 717 q 128 799 119 757 l 128 799 q 279 1013 154 928 q 561 1099 404 1099 l 561 1099 q 642 1093 601 1099 l 642 1093 q 925 940 821 1064 l 925 940 q 993 747 993 858 l 993 747 q 986 669 993 710 l 986 669 q 740 263 949 461 l 740 263 q 322 -6 551 81 l 322 -6 z m 575 860 l 575 860 q 414 743 438 869 l 414 743 q 413 714 413 728 l 413 714 q 460 625 413 656 l 460 625 q 564 603 503 599 l 564 603 q 689 713 679 621 l 689 713 q 690 738 690 725 l 690 738 q 575 860 690 853 z "}," ":{"ha":632,"x_min":null,"x_max":null,"o":""},"!":{"ha":307,"x_min":33,"x_max":303,"o":"m 33 1099 l 303 1088 q 219 410 269 838 l 219 410 l 72 399 q 33 1099 54 685 l 33 1099 z m 149 -6 l 149 -6 q 225 26 193 -6 q 257 103 257 57 l 257 103 q 225 179 257 147 q 149 211 193 211 l 149 211 q 72 179 104 211 q 40 103 40 147 l 40 103 q 72 26 40 57 q 149 -6 104 -6 z "},"\"":{"ha":885,"x_min":29,"x_max":808,"o":"m 325 1050 l 325 1050 q 376 954 376 1008 l 376 954 q 319 846 376 901 l 319 846 l 108 549 l 29 593 l 117 928 q 104 1022 104 983 l 104 1022 q 172 1113 104 1113 l 172 1113 q 325 1050 233 1113 z m 786 939 l 786 939 q 808 865 808 904 l 808 865 q 715 749 808 792 l 715 749 l 419 533 l 358 601 l 550 890 q 636 1051 565 1051 l 636 1051 q 786 939 700 1051 z "},"#":{"ha":776,"x_min":31,"x_max":690,"o":"m 297 393 l 415 401 l 424 519 l 306 511 l 297 393 z m 669 419 l 658 257 l 565 251 l 560 158 l 397 147 l 404 239 l 286 231 l 279 138 l 117 126 l 124 219 l 31 214 l 42 375 l 135 382 l 143 500 l 50 493 l 63 656 l 154 663 l 161 754 l 324 767 l 317 674 l 435 682 l 442 775 l 603 786 l 597 693 l 690 700 l 679 538 l 586 531 l 578 413 l 669 419 z "},"$":{"ha":1057,"x_min":49,"x_max":999,"o":"m 81 172 l 49 411 q 124 394 86 403 l 124 394 q 249 378 194 378 l 249 378 q 283 379 267 378 l 283 379 q 397 421 367 389 l 397 421 q 419 497 419 446 l 419 497 q 418 525 419 506 l 418 525 q 418 554 418 543 l 418 554 q 421 596 418 578 l 421 596 q 435 710 428 653 l 435 710 q 476 831 447 783 l 476 831 q 593 922 517 893 l 593 922 q 606 936 600 924 l 606 936 q 638 1024 607 938 q 667 1113 668 1111 l 667 1113 q 903 1074 669 1110 l 903 1074 q 843 894 872 983 l 843 894 q 925 867 867 899 l 925 867 q 999 817 976 839 l 999 817 l 842 679 q 824 693 846 681 q 781 706 801 706 l 781 706 q 746 696 761 706 l 746 696 q 713 588 713 672 l 713 588 q 716 506 713 563 q 719 419 719 449 l 719 419 q 685 275 719 319 l 685 275 q 576 182 636 214 l 576 182 q 526 161 531 157 l 526 161 q 475 8 501 79 l 475 8 q 232 42 357 22 l 232 42 q 250 94 240 68 l 250 94 q 268 149 269 149 l 268 149 q 140 158 210 147 l 140 158 q 81 172 79 169 l 81 172 z "},"%":{"ha":1786,"x_min":57,"x_max":1726,"o":"m 751 786 l 751 786 q 676 583 751 674 l 676 583 q 394 465 578 465 l 394 465 q 138 556 228 465 l 138 556 q 57 765 57 638 l 57 765 q 147 992 57 894 l 147 992 q 424 1101 250 1101 l 424 1101 q 665 1022 579 1101 q 751 786 751 942 z m 310 779 l 310 779 q 336 704 310 733 q 400 675 363 675 l 400 675 q 470 703 443 675 q 497 782 497 731 l 497 782 q 407 892 497 892 l 407 892 q 335 858 361 892 q 310 779 310 824 z m 1029 290 l 1029 290 q 1121 515 1029 419 l 1121 515 q 1396 625 1224 625 l 1396 625 q 1640 544 1554 625 q 1726 308 1726 464 l 1726 308 q 1650 107 1726 197 l 1650 107 q 1368 -11 1551 -11 l 1368 -11 q 1111 81 1201 -11 l 1111 81 q 1029 290 1029 161 z m 1469 301 l 1469 301 q 1443 385 1469 354 l 1443 385 q 1382 411 1419 411 l 1382 411 q 1309 377 1335 411 q 1283 297 1283 343 l 1283 297 q 1309 222 1283 251 q 1374 193 1335 193 l 1374 193 q 1441 222 1413 193 q 1469 301 1469 250 z m 1114 1097 l 1367 1038 q 685 -3 1326 981 l 685 -3 l 382 10 q 729 521 383 11 l 729 521 q 1114 1097 1089 1053 l 1114 1097 z "},"&":{"ha":1132,"x_min":46,"x_max":1072,"o":"m 46 321 l 46 321 q 106 488 46 404 l 106 488 q 233 603 160 564 l 233 603 q 118 811 118 651 l 118 811 q 190 1003 118 919 l 190 1003 q 453 1108 282 1106 l 453 1108 q 694 1007 596 1110 l 694 1007 q 774 839 779 919 l 774 839 q 774 778 774 808 l 774 778 q 756 685 772 722 l 756 685 q 683 608 733 631 l 683 608 q 821 486 760 578 l 821 486 q 869 347 876 400 l 869 347 q 957 283 869 343 l 957 283 q 1072 201 1054 218 l 1072 201 q 847 31 963 115 l 847 31 q 743 103 833 36 l 743 103 q 681 47 736 79 l 681 47 q 475 3 596 0 l 475 3 q 150 106 267 8 l 150 106 q 46 321 46 193 z m 558 378 l 558 378 q 528 461 558 431 q 458 492 499 492 l 458 492 q 381 458 410 492 q 353 372 353 424 l 353 372 q 383 295 353 325 q 456 265 413 265 l 456 265 q 528 294 499 265 q 558 378 558 324 z m 371 771 l 371 771 q 395 707 371 733 q 454 681 419 681 l 454 681 q 516 706 490 681 q 542 775 542 731 l 542 775 q 460 865 542 865 l 460 865 q 394 839 418 865 q 371 771 371 813 z "},"'":{"ha":531,"x_min":25,"x_max":453,"o":"m 421 1006 l 421 1006 q 453 924 453 968 l 453 924 q 369 807 453 857 l 369 807 l 94 560 l 25 622 l 188 933 q 265 1104 186 1104 l 265 1104 q 421 1006 329 1104 z "},"(":{"ha":564,"x_min":26,"x_max":494,"o":"m 367 1113 l 489 999 q 340 864 401 949 l 340 864 q 240 549 240 731 l 240 549 q 342 260 240 393 l 342 260 q 494 125 417 161 l 494 125 l 367 7 q 151 190 244 69 l 151 190 q 26 536 26 350 l 26 536 q 151 913 26 738 l 151 913 q 367 1113 247 1047 l 367 1113 z "},")":{"ha":585,"x_min":22,"x_max":490,"o":"m 22 981 l 150 1099 q 367 915 272 1036 l 367 915 q 490 569 490 756 l 490 569 q 367 193 490 368 l 367 193 q 150 -6 269 58 l 150 -6 l 29 108 q 178 242 115 157 l 178 242 q 276 557 276 375 l 276 557 q 175 846 276 713 l 175 846 q 22 981 100 944 l 22 981 z "},"*":{"ha":804,"x_min":47,"x_max":701,"o":"m 565 474 l 701 514 l 633 697 q 481 610 582 669 l 481 610 l 525 769 l 340 797 l 308 610 l 128 697 l 49 538 l 196 482 l 47 417 l 121 285 l 278 369 q 236 214 269 324 l 236 214 q 426 196 289 203 l 426 196 l 449 369 l 640 278 l 674 438 l 565 474 z "},"+":{"ha":763,"x_min":39,"x_max":679,"o":"m 478 231 l 667 243 l 679 474 l 479 461 l 500 622 l 275 608 l 258 444 l 50 431 l 39 199 l 246 219 l 232 58 l 463 74 l 478 231 z "},",":{"ha":549,"x_min":14,"x_max":447,"o":"m 415 269 l 415 269 q 447 186 447 231 l 447 186 q 363 68 447 118 l 363 68 l 83 -182 l 14 -119 l 179 196 q 257 369 178 369 l 257 369 q 415 269 321 369 z "},"-":{"ha":789,"x_min":42,"x_max":682,"o":"m 54 431 l 682 475 l 671 243 l 42 200 l 54 431 z "},"‐":{"ha":789,"x_min":42,"x_max":682,"o":"m 54 431 l 682 475 l 671 243 l 42 200 l 54 431 z "},".":{"ha":361,"x_min":28,"x_max":247,"o":"m 138 3 l 138 3 q 215 35 183 3 q 247 113 247 67 l 247 113 q 215 190 247 158 q 138 222 183 222 l 138 222 q 60 190 93 222 q 28 113 28 158 l 28 113 q 60 35 28 67 q 138 3 93 3 z "},"/":{"ha":1006,"x_min":65,"x_max":1053,"o":"m 799 1108 l 1053 1049 q 368 4 1013 992 l 368 4 l 65 18 q 413 531 65 18 l 413 531 q 799 1108 774 1064 l 799 1108 z "},":":{"ha":343,"x_min":29,"x_max":253,"o":"m 139 164 l 139 164 q 215 196 183 164 q 247 272 247 228 l 247 272 q 215 350 247 318 q 139 382 183 382 l 139 382 q 61 350 93 382 q 29 272 29 318 l 29 272 q 61 196 29 228 q 139 164 93 164 z m 143 674 l 143 674 q 221 706 189 674 q 253 783 253 738 l 253 783 q 221 860 253 828 q 143 892 189 892 l 143 892 q 67 860 99 892 q 35 783 35 828 l 35 783 q 67 706 35 738 q 143 674 99 674 z "},";":{"ha":496,"x_min":15,"x_max":446,"o":"m 279 665 l 279 665 q 356 697 324 665 q 388 775 388 729 l 388 775 q 356 851 388 819 q 279 883 324 883 l 279 883 q 201 851 233 883 q 169 775 169 819 l 169 775 q 201 697 169 729 q 279 665 233 665 z m 414 304 l 414 304 q 446 222 446 265 l 446 222 q 363 104 446 154 l 363 104 l 85 -144 l 15 -82 l 179 231 q 257 404 178 404 l 257 404 q 414 304 321 404 z "},"<":{"ha":500,"x_min":null,"x_max":null,"o":""},"=":{"ha":706,"x_min":31,"x_max":689,"o":"m 31 117 l 658 160 l 669 392 l 42 347 l 31 117 z m 50 525 l 678 568 l 689 800 l 61 756 l 50 525 z "},">":{"ha":500,"x_min":null,"x_max":null,"o":""},"?":{"ha":764,"x_min":-14,"x_max":776,"o":"m 165 743 l 1 989 q 118 1065 -14 1021 l 118 1065 q 407 1111 260 1111 l 407 1111 q 764 897 718 1111 l 764 897 q 776 772 776 836 l 776 772 q 738 576 776 656 l 738 576 q 601 467 692 483 l 601 467 q 428 233 428 436 l 428 233 q 432 154 428 154 l 432 154 q 174 156 190 151 l 174 156 q 204 513 168 453 l 204 513 q 297 578 218 538 l 297 578 q 428 650 399 629 l 428 650 q 488 744 492 696 l 488 744 q 396 832 479 832 l 396 832 q 165 743 307 832 l 165 743 z m 175 -137 l 175 -137 q 216 -40 175 -81 q 314 1 257 1 l 314 1 q 413 -40 372 1 q 454 -137 454 -81 l 454 -137 q 413 -237 454 -196 q 314 -278 372 -278 l 314 -278 q 216 -237 257 -278 q 175 -137 175 -196 z "},"@":{"ha":500,"x_min":null,"x_max":null,"o":""},"A":{"ha":1354,"x_min":26,"x_max":1285,"o":"m 332 0 l 26 85 q 332 604 31 110 l 332 604 q 638 1103 485 854 l 638 1103 l 649 1103 q 970 591 668 1076 q 1285 82 1272 106 l 1285 82 l 1015 -1 q 949 94 982 47 l 949 94 q 867 208 878 194 l 867 208 l 453 208 q 390 97 443 188 q 332 0 338 7 l 332 0 z m 535 433 l 783 435 q 653 654 719 542 l 653 654 q 594 544 653 653 q 535 433 535 436 l 535 433 z "},"B":{"ha":951,"x_min":21,"x_max":874,"o":"m 21 33 l 21 33 q 58 558 22 42 q 93 1076 93 1075 l 93 1076 q 238 1092 126 1082 l 238 1092 q 483 1103 389 1104 l 483 1103 q 789 1029 692 1101 l 789 1029 q 860 889 865 974 l 860 889 q 832 778 853 828 l 832 778 q 676 618 783 658 l 676 618 q 813 526 763 597 l 813 526 q 865 301 874 442 l 865 301 q 794 150 850 213 l 794 150 q 350 -1 661 -1 l 350 -1 q 21 33 203 -1 z m 328 444 l 313 236 q 356 235 328 236 q 397 233 385 233 l 397 233 q 479 253 454 233 l 479 253 q 513 347 510 278 l 513 347 q 396 451 517 451 l 396 451 q 328 444 365 451 l 328 444 z m 360 876 l 349 714 q 386 711 368 711 l 386 711 q 496 747 456 711 l 496 747 q 529 824 531 779 l 529 824 q 439 885 525 885 l 439 885 q 392 881 418 885 l 392 881 q 360 876 375 879 l 360 876 z "},"C":{"ha":1224,"x_min":29,"x_max":1169,"o":"m 1001 471 l 1169 128 q 749 11 976 47 l 749 11 q 603 -1 672 -1 l 603 -1 q 153 197 311 -1 l 153 197 q 29 539 29 351 l 29 539 q 31 574 29 557 l 31 574 q 218 917 51 775 l 218 917 q 864 1104 442 1104 l 864 1104 q 1013 1099 935 1104 l 1013 1099 q 900 765 1021 1074 l 900 765 q 843 768 871 768 l 843 768 q 567 700 669 768 l 567 700 q 474 550 474 639 l 474 550 q 489 486 474 518 l 489 486 q 694 386 535 385 l 694 386 q 872 424 767 386 l 872 424 q 1001 471 936 447 l 1001 471 z "},"D":{"ha":1185,"x_min":25,"x_max":1122,"o":"m 108 1108 l 108 1108 q 625 1047 471 1079 l 625 1047 q 1039 838 918 985 l 1039 838 q 1111 613 1122 736 l 1111 613 q 775 142 1088 307 l 775 142 q 147 4 511 4 l 147 4 q 25 8 85 4 l 25 8 q 108 1108 67 557 z m 418 751 l 390 401 q 565 440 490 392 l 565 440 q 647 592 647 494 l 647 592 q 418 751 647 731 l 418 751 z "},"E":{"ha":881,"x_min":24,"x_max":800,"o":"m 761 200 l 746 -3 q 365 19 699 -1 l 365 19 q 25 42 24 40 l 25 42 q 100 1101 63 571 l 100 1101 q 800 1065 447 1082 l 800 1065 l 785 824 q 478 849 633 836 l 478 849 l 472 747 q 694 733 567 738 l 694 733 l 665 351 q 553 358 642 351 q 444 365 464 364 l 444 365 l 432 222 q 589 211 511 217 l 589 211 q 761 200 750 199 l 761 200 z "},"F":{"ha":794,"x_min":26,"x_max":733,"o":"m 465 376 l 486 32 q 92 4 288 17 l 92 4 q 26 1053 60 528 l 26 1053 q 717 1108 369 1079 l 717 1108 l 733 869 q 429 854 583 863 l 429 854 l 438 754 q 657 769 532 757 l 657 769 l 679 392 q 570 383 656 389 q 465 376 485 378 l 465 376 z "},"G":{"ha":1153,"x_min":29,"x_max":1074,"o":"m 982 168 l 982 168 q 571 -7 831 -3 l 571 -7 q 214 104 354 -10 l 214 104 q 33 458 63 225 l 33 458 q 29 526 29 492 l 29 526 q 192 926 29 753 q 571 1099 356 1099 l 571 1099 q 901 972 747 1099 l 901 972 q 804 855 907 967 q 693 746 701 743 l 693 746 q 603 765 647 765 l 603 765 q 439 679 507 765 l 439 679 q 382 519 379 601 l 382 519 q 439 364 385 422 q 593 306 493 306 l 593 306 q 646 310 618 306 l 646 310 q 761 406 742 324 l 761 406 q 586 518 600 513 l 586 518 l 1046 685 q 1061 603 1053 644 l 1061 603 q 1074 454 1074 522 l 1074 454 q 982 168 1074 269 z "},"H":{"ha":1219,"x_min":15,"x_max":1126,"o":"m 457 35 l 106 4 q 15 1025 61 515 l 15 1025 l 346 1054 q 361 908 347 1058 l 361 908 q 374 761 367 835 l 374 761 l 738 792 q 711 1081 715 1058 l 711 1081 l 1033 1108 q 1126 96 1081 601 l 1126 96 l 779 64 q 747 417 769 157 l 747 417 l 426 388 q 457 35 453 61 l 457 35 z "},"I":{"ha":697,"x_min":26,"x_max":629,"o":"m 492 -6 l 26 24 q 99 574 36 69 l 99 574 q 161 1100 160 1065 l 161 1100 l 629 1072 q 558 537 624 1051 q 492 -6 493 22 l 492 -6 z "},"J":{"ha":840,"x_min":18,"x_max":764,"o":"m 194 -6 l 18 232 q 175 290 96 261 l 175 290 q 304 371 263 324 l 304 371 q 369 543 360 432 l 369 543 l 389 760 q 408 926 399 843 l 408 926 q 424 1100 425 1079 l 424 1100 l 764 1074 q 722 732 747 1011 l 722 732 l 703 514 q 542 169 683 300 l 542 169 q 194 -6 419 56 l 194 -6 z "},"K":{"ha":1036,"x_min":25,"x_max":1075,"o":"m 765 625 l 765 625 q 971 850 842 707 l 971 850 l 726 1104 q 401 671 643 994 l 401 671 l 401 672 q 390 857 396 765 l 390 857 q 382 1064 378 1050 l 382 1064 l 25 1043 q 68 527 32 1018 q 104 0 104 36 l 104 0 l 440 29 q 434 102 439 31 q 429 189 429 174 l 429 189 l 565 335 q 707 199 618 289 l 707 199 q 835 57 804 99 l 835 57 l 1075 306 q 765 625 944 435 z "},"L":{"ha":838,"x_min":31,"x_max":799,"o":"m 724 422 l 799 85 q 154 3 154 3 l 154 3 q 94 524 153 1 l 94 524 q 31 1067 33 1051 l 31 1067 l 351 1108 q 433 385 350 1104 l 433 385 q 724 422 724 422 l 724 422 z "},"M":{"ha":1681,"x_min":19,"x_max":1619,"o":"m 422 -1 l 19 68 q 422 1065 31 97 l 422 1065 q 618 893 436 1058 q 803 715 800 728 l 803 715 q 964 913 800 729 l 964 913 q 1135 1103 1049 1008 l 1135 1103 l 1619 153 l 1257 40 q 1147 232 1254 44 q 1038 422 1039 419 l 1038 422 q 833 157 1039 419 l 833 157 q 601 396 829 158 l 601 396 q 422 -1 515 208 l 422 -1 z "},"N":{"ha":1225,"x_min":18,"x_max":1147,"o":"m 354 113 l 18 160 q 181 1103 22 157 l 181 1103 q 492 833 240 1042 l 492 833 q 747 615 732 635 l 747 615 q 803 989 774 797 l 803 989 l 1147 915 q 989 -1 1139 879 l 989 -1 q 881 83 950 31 l 881 83 q 411 411 713 208 l 411 411 q 354 113 386 283 l 354 113 z "},"O":{"ha":1269,"x_min":22,"x_max":1188,"o":"m 638 1103 l 638 1103 q 1033 965 886 1103 l 1033 965 q 1188 571 1188 821 l 1188 571 q 1050 204 1188 367 l 1050 204 q 565 -1 879 -1 l 565 -1 q 168 149 318 -1 l 168 149 q 22 515 22 292 l 22 515 q 183 918 22 750 l 183 918 q 638 1103 357 1103 z m 613 383 l 613 383 q 726 422 674 383 l 726 422 q 800 579 799 475 l 800 579 q 736 717 800 671 l 736 717 q 626 753 688 753 l 626 753 q 506 708 561 753 l 506 708 q 438 558 438 653 l 438 558 q 504 424 438 475 l 504 424 q 613 383 558 383 z "},"P":{"ha":1000,"x_min":25,"x_max":922,"o":"m 492 49 l 214 -3 q 25 1040 213 0 l 25 1040 q 539 1103 379 1104 l 539 1103 q 918 874 876 1099 l 918 874 q 922 821 922 849 l 922 821 q 799 549 922 679 l 799 549 q 438 328 668 410 l 438 328 l 447 269 q 492 49 482 79 l 492 49 z m 375 843 l 410 667 q 572 775 571 685 l 572 775 q 458 851 574 851 l 458 851 q 375 843 421 851 l 375 843 z "},"Q":{"ha":1175,"x_min":19,"x_max":1088,"o":"m 1069 226 l 840 3 q 536 53 688 28 l 536 53 q 175 217 313 101 l 175 217 q 19 571 19 347 l 19 571 q 171 943 19 789 l 171 943 q 588 1108 333 1108 l 588 1108 q 949 978 810 1108 q 1088 636 1088 849 l 1088 636 q 1064 524 1083 579 l 1064 524 q 900 286 1017 390 l 900 286 q 1069 226 919 278 l 1069 226 z m 567 440 l 567 440 q 679 488 626 440 l 679 488 q 739 619 739 540 l 739 619 q 683 736 739 689 l 683 736 q 579 778 635 778 l 579 778 q 451 722 508 778 q 394 600 394 667 l 394 600 q 456 482 394 531 l 456 482 q 567 440 508 440 z "},"R":{"ha":1140,"x_min":26,"x_max":1054,"o":"m 424 360 l 418 363 q 383 212 419 363 q 346 56 346 61 l 346 56 l 26 124 q 144 615 36 146 q 254 1104 253 1085 l 254 1104 q 521 1049 388 1076 l 521 1049 q 767 988 692 1013 l 767 988 q 977 868 900 942 q 1054 706 1054 794 l 1054 706 q 1046 647 1054 676 l 1046 647 q 975 529 1025 578 l 975 529 q 892 471 944 500 l 892 471 q 856 442 854 449 l 856 442 q 967 7 860 424 l 967 7 l 619 0 q 593 167 621 4 q 561 331 565 329 l 561 331 q 491 346 525 339 q 424 360 457 353 l 424 360 z m 485 683 l 485 663 q 590 649 538 649 l 590 649 q 685 690 674 649 l 685 690 q 688 715 688 703 l 688 715 q 521 832 688 794 l 521 832 q 485 683 490 692 l 485 683 z "},"S":{"ha":1053,"x_min":25,"x_max":1001,"o":"m 61 10 l 25 350 q 100 328 63 339 l 100 328 q 226 308 169 308 l 226 308 q 275 313 251 308 l 275 313 q 406 417 365 326 l 406 417 q 450 614 432 475 l 450 614 q 468 786 458 700 l 468 786 q 525 969 483 900 l 525 969 q 688 1093 581 1060 l 688 1093 q 782 1108 736 1108 l 782 1108 q 1001 1006 888 1108 l 1001 1006 l 929 731 q 909 751 935 732 q 858 769 883 769 l 858 769 q 819 754 838 769 l 819 754 q 744 506 769 711 l 744 506 q 689 194 717 260 q 582 75 661 129 l 582 75 q 361 3 485 7 l 361 3 q 131 3 222 -1 l 131 3 q 61 10 60 6 l 61 10 z "},"T":{"ha":946,"x_min":22,"x_max":878,"o":"m 715 35 l 454 -6 q 336 742 454 -6 l 336 742 l 65 701 l 22 976 q 836 1100 178 999 l 836 1100 l 878 832 q 600 788 632 793 l 600 788 l 715 35 z "},"U":{"ha":1160,"x_min":28,"x_max":1065,"o":"m 1057 789 l 1057 789 q 1065 632 1065 704 l 1065 632 q 1024 356 1065 472 l 1024 356 q 914 161 989 256 l 914 161 q 554 0 783 0 l 554 0 q 338 31 414 0 l 338 31 q 161 189 238 71 l 161 189 q 72 346 92 297 l 72 346 q 28 625 28 458 l 28 625 q 38 794 28 701 l 38 794 q 82 1104 65 1075 l 82 1104 l 421 1049 q 381 726 381 863 l 381 726 q 385 624 381 676 l 385 624 q 432 496 389 549 l 432 496 q 561 436 483 433 l 561 436 q 664 500 618 439 l 664 500 q 711 610 701 551 l 711 610 q 725 769 725 696 l 725 769 q 678 1053 725 894 l 678 1053 l 1004 1096 q 1024 1006 1014 1051 l 1024 1006 q 1057 789 1046 894 z "},"V":{"ha":1192,"x_min":17,"x_max":1178,"o":"m 17 864 l 314 1044 q 644 542 456 829 l 644 542 q 874 1108 753 801 l 874 1108 l 1178 1010 q 711 4 981 579 l 711 4 l 701 4 q 335 461 632 83 l 335 461 q 17 864 33 846 l 17 864 z "},"W":{"ha":1397,"x_min":19,"x_max":1442,"o":"m 19 1031 l 321 1104 q 428 824 333 1060 l 428 824 q 526 567 521 594 l 526 567 q 721 833 540 586 l 721 833 q 872 540 747 792 l 872 540 q 1019 776 883 544 q 1181 1065 1156 1008 l 1181 1065 l 1442 922 q 885 0 1431 903 l 885 0 q 775 122 872 1 l 775 122 q 675 254 686 235 l 675 254 q 431 28 678 247 l 431 28 q 228 506 329 267 l 228 506 q 19 1031 50 925 l 19 1031 z "},"X":{"ha":1078,"x_min":24,"x_max":1122,"o":"m 292 -1 l 82 203 q 229 382 156 292 l 229 382 q 347 539 356 536 l 347 539 q 196 644 338 543 q 24 771 54 746 l 24 771 l 214 1015 q 368 896 244 988 l 368 896 q 535 771 500 800 l 535 771 q 797 1104 644 904 l 797 1104 l 1022 926 q 894 750 1007 907 l 894 750 q 793 613 793 610 l 793 613 q 940 489 867 550 l 940 489 q 1122 328 1119 331 l 1122 328 l 933 97 q 753 222 908 119 l 753 222 q 571 346 593 326 l 571 346 q 292 -1 442 190 l 292 -1 z "},"Y":{"ha":1228,"x_min":22,"x_max":1181,"o":"m 633 -1 l 292 46 q 331 335 300 106 l 331 335 q 183 633 333 351 q 22 922 32 915 l 22 922 l 297 1103 q 551 643 303 1096 l 551 643 q 738 833 557 660 q 938 1015 919 1007 l 938 1015 l 1181 783 q 925 543 1171 775 l 925 543 q 676 303 678 307 l 676 303 q 633 -1 633 26 l 633 -1 z "},"Z":{"ha":1035,"x_min":15,"x_max":1013,"o":"m 931 301 l 894 -1 q 15 103 875 1 l 15 103 q 244 427 24 97 q 457 758 465 757 l 457 758 q 103 803 449 760 l 103 803 l 140 1104 q 1013 996 140 1104 l 1013 996 q 600 343 974 954 l 600 343 q 931 301 931 300 l 931 301 z "},"[":{"ha":500,"x_min":null,"x_max":null,"o":""},"\\":{"ha":1051,"x_min":38,"x_max":1025,"o":"m 292 1108 l 38 1049 q 721 4 78 992 l 721 4 l 1025 18 q 678 531 1024 18 l 678 531 q 292 1108 317 1064 l 292 1108 z "},"]":{"ha":500,"x_min":null,"x_max":null,"o":""},"^":{"ha":500,"x_min":null,"x_max":null,"o":""},"_":{"ha":776,"x_min":31,"x_max":669,"o":"m 31 200 l 658 243 l 669 475 l 42 431 l 31 200 z "},"`":{"ha":500,"x_min":null,"x_max":null,"o":""},"a":{"ha":1056,"x_min":25,"x_max":1032,"o":"m 269 0 l 25 68 q 269 483 29 88 l 269 483 q 514 883 392 683 l 514 883 l 524 883 q 781 473 539 861 q 1032 65 1022 85 l 1032 65 l 817 -1 q 763 75 789 38 l 763 75 q 699 167 706 156 l 699 167 l 367 167 q 316 78 358 150 q 269 0 274 6 l 269 0 z m 432 347 l 632 347 q 526 524 579 433 l 526 524 q 479 435 526 522 q 432 347 432 349 l 432 347 z "},"b":{"ha":793,"x_min":21,"x_max":703,"o":"m 21 26 l 21 26 q 51 447 22 33 q 78 861 79 860 l 78 861 q 390 883 225 885 l 390 883 q 635 824 557 881 l 635 824 q 692 711 696 779 l 692 711 q 669 622 686 661 l 669 622 q 544 494 631 526 l 544 494 q 654 421 614 478 l 654 421 q 697 242 703 353 l 697 242 q 640 119 685 171 l 640 119 q 283 -1 533 -1 l 283 -1 q 21 26 167 -1 z m 267 356 l 254 189 q 290 188 267 189 q 322 186 313 186 l 322 186 q 390 204 368 186 q 414 278 411 222 l 414 278 q 321 361 418 361 l 321 361 q 267 356 296 361 l 267 356 z m 293 701 l 283 571 q 313 569 299 569 l 313 569 q 399 597 368 569 q 428 660 429 624 l 428 660 q 356 708 425 708 l 356 708 q 293 701 369 708 l 293 701 z "},"c":{"ha":986,"x_min":14,"x_max":940,"o":"m 804 376 l 940 103 q 603 8 786 38 l 603 8 q 486 0 543 0 l 486 0 q 113 175 240 0 l 113 175 q 28 460 14 313 l 28 460 q 179 733 44 621 l 179 733 q 694 883 357 883 l 694 883 q 814 879 753 883 l 814 879 q 725 613 821 858 l 725 613 q 678 614 701 614 l 678 614 q 457 560 539 614 l 457 560 q 383 440 383 511 l 383 440 q 394 389 383 414 l 394 389 q 560 308 432 308 l 560 308 q 701 339 617 310 l 701 339 q 804 376 753 358 l 804 376 z "},"d":{"ha":972,"x_min":24,"x_max":901,"o":"m 90 888 l 90 888 q 504 838 381 864 l 504 838 q 835 671 739 788 l 835 671 q 893 489 901 589 l 893 489 q 624 114 874 246 l 624 114 q 122 3 414 3 l 122 3 q 24 7 72 3 l 24 7 q 90 888 92 878 z m 339 600 l 317 321 q 456 352 400 314 q 521 454 513 390 l 521 454 q 339 600 538 583 l 339 600 z "},"e":{"ha":711,"x_min":22,"x_max":644,"o":"m 613 160 l 601 -3 q 296 15 563 -1 l 296 15 q 25 33 22 32 l 25 33 q 85 881 54 457 l 85 881 q 644 851 363 865 l 644 851 l 632 658 q 386 679 511 669 l 386 679 l 382 597 q 560 586 457 589 l 560 586 l 536 281 q 447 287 518 282 q 360 292 375 292 l 360 292 l 350 178 q 613 160 608 160 l 613 160 z "},"f":{"ha":664,"x_min":26,"x_max":592,"o":"m 376 301 l 393 26 q 78 3 235 14 l 78 3 q 26 842 75 0 l 26 842 q 578 888 300 864 l 578 888 l 592 696 q 349 683 471 690 l 349 683 l 354 603 q 531 615 429 606 l 531 615 l 547 313 q 460 307 529 311 q 376 301 392 303 l 376 301 z "},"g":{"ha":938,"x_min":28,"x_max":863,"o":"m 790 135 l 790 135 q 461 -6 668 -3 l 461 -6 q 175 83 288 -7 l 175 83 q 31 367 54 181 l 31 367 q 28 421 28 393 l 28 421 q 158 741 28 603 q 461 879 288 879 l 461 879 q 725 778 603 879 l 725 778 q 648 684 731 774 q 558 597 565 594 l 558 597 q 488 613 522 613 l 488 613 q 356 543 410 613 l 356 543 q 310 417 307 481 l 310 417 q 355 291 311 338 q 478 244 399 244 l 478 244 q 521 247 499 244 l 521 247 q 614 325 597 258 l 614 325 q 474 414 485 410 l 474 414 l 842 549 q 853 482 847 515 l 853 482 q 863 364 863 418 l 863 364 q 790 135 863 217 z "},"h":{"ha":1001,"x_min":17,"x_max":906,"o":"m 369 28 l 89 3 q 17 819 43 529 l 17 819 l 281 843 q 293 726 282 846 l 293 726 q 303 608 297 668 l 303 608 l 594 633 q 574 864 576 846 l 574 864 l 831 888 q 906 76 868 482 l 906 76 l 628 51 q 601 333 619 126 l 601 333 l 344 310 q 369 28 367 49 l 369 28 z "},"i":{"ha":581,"x_min":25,"x_max":507,"o":"m 397 -4 l 25 18 q 83 458 33 56 l 83 458 q 133 879 132 853 l 133 879 l 507 857 q 451 429 503 840 q 397 -4 399 18 l 397 -4 z "},"j":{"ha":700,"x_min":18,"x_max":615,"o":"m 160 -4 l 18 186 q 143 232 81 210 l 143 232 q 247 296 214 260 l 247 296 q 300 435 292 346 l 300 435 l 315 608 q 331 740 324 675 l 331 740 q 343 879 344 863 l 343 879 l 615 858 q 582 585 603 808 l 582 585 l 567 411 q 160 -4 539 99 l 160 -4 z "},"k":{"ha":935,"x_min":25,"x_max":864,"o":"m 617 500 l 617 500 q 782 679 678 565 l 782 679 l 586 883 q 325 536 518 796 l 325 536 l 325 538 q 317 686 321 611 l 317 686 q 310 851 306 840 l 310 851 l 25 835 q 59 422 31 815 q 88 0 88 29 l 88 0 l 357 24 q 351 81 356 24 q 347 150 347 139 l 347 150 l 457 268 q 569 158 499 232 l 569 158 q 672 46 649 79 l 672 46 l 864 244 q 617 500 760 349 z "},"l":{"ha":696,"x_min":29,"x_max":643,"o":"m 583 339 l 643 68 q 128 3 128 3 l 128 3 q 79 418 126 1 l 79 418 q 29 854 31 842 l 29 854 l 285 886 q 351 308 285 883 l 351 308 q 583 339 583 338 l 583 339 z "},"m":{"ha":1368,"x_min":19,"x_max":1300,"o":"m 342 -1 l 19 54 q 342 853 28 78 l 342 853 q 499 714 353 846 q 646 572 644 582 l 646 572 q 775 731 644 583 l 775 731 q 911 882 843 806 l 911 882 l 1300 122 l 1010 32 q 921 185 1007 35 q 835 338 835 336 l 835 338 q 671 125 835 335 l 671 125 q 485 317 668 126 l 485 317 q 342 -1 415 167 l 342 -1 z "},"n":{"ha":1001,"x_min":18,"x_max":922,"o":"m 288 90 l 18 128 q 149 883 22 126 l 149 883 q 397 667 196 833 l 397 667 q 601 492 589 508 l 601 492 q 646 792 622 638 l 646 792 l 922 732 q 794 -1 904 640 l 794 -1 q 708 67 765 25 l 708 67 q 333 329 575 167 l 333 329 q 288 90 313 226 l 288 90 z "},"o":{"ha":1039,"x_min":22,"x_max":954,"o":"m 515 882 l 515 882 q 832 772 713 882 l 832 772 q 954 456 954 657 l 954 456 q 844 163 954 293 l 844 163 q 456 -1 707 -1 l 456 -1 q 138 118 258 -1 l 138 118 q 22 413 22 233 l 22 413 q 150 735 22 600 l 150 735 q 515 882 290 882 z m 493 307 l 493 307 q 586 338 543 307 l 586 338 q 644 463 643 381 l 644 463 q 593 574 644 536 l 593 574 q 506 601 554 601 l 506 601 q 408 567 453 601 l 408 567 q 354 447 354 522 l 354 447 q 408 339 354 381 l 408 339 q 493 307 450 307 z "},"p":{"ha":811,"x_min":24,"x_max":742,"o":"m 397 39 l 175 -1 q 24 832 175 0 l 24 832 q 435 882 307 883 l 435 882 q 739 699 706 879 l 739 699 q 742 657 742 678 l 742 657 q 643 439 742 543 l 643 439 q 354 263 539 328 l 354 263 l 363 215 q 397 39 390 63 l 397 39 z m 304 675 l 332 533 q 461 621 461 549 l 461 621 q 371 682 463 682 l 371 682 q 304 675 342 682 l 304 675 z "},"q":{"ha":965,"x_min":19,"x_max":874,"o":"m 860 182 l 676 3 q 433 42 554 22 l 433 42 q 144 174 254 81 l 144 174 q 19 457 19 278 l 19 457 q 140 754 19 632 l 140 754 q 474 886 271 886 l 474 886 q 763 783 653 886 q 874 508 874 679 l 874 508 q 856 419 871 464 l 856 419 q 724 229 818 313 l 724 229 q 860 182 740 222 l 860 182 z m 458 353 l 458 353 q 547 390 506 353 l 547 390 q 596 496 596 433 l 596 496 q 551 589 596 551 l 551 589 q 467 622 511 622 l 467 622 q 365 578 411 622 q 319 481 319 533 l 319 481 q 368 386 319 425 l 368 386 q 458 353 411 353 z "},"r":{"ha":921,"x_min":25,"x_max":847,"o":"m 343 294 l 339 297 q 310 176 339 296 q 281 51 281 56 l 281 51 l 25 106 q 119 500 33 122 l 119 500 q 207 890 206 874 l 207 890 q 421 846 314 868 l 421 846 q 617 796 558 817 l 617 796 q 785 701 724 761 q 847 571 847 642 l 847 571 q 840 524 847 547 l 840 524 q 783 431 825 469 l 783 431 q 718 383 760 406 l 718 383 q 689 360 688 365 l 689 360 q 778 13 692 344 l 778 13 l 500 7 q 478 140 500 10 q 453 271 457 271 l 453 271 q 397 283 425 278 q 343 294 369 289 l 343 294 z m 392 553 l 392 536 q 476 525 435 525 l 476 525 q 551 558 543 525 l 551 558 q 554 579 554 569 l 554 579 q 421 672 554 642 l 421 672 q 392 553 396 560 l 392 553 z "},"s":{"ha":882,"x_min":24,"x_max":804,"o":"m 53 8 l 24 281 q 83 263 53 271 l 83 263 q 185 247 139 247 l 185 247 q 224 250 206 247 l 224 250 q 328 333 296 261 l 328 333 q 364 490 350 381 l 364 490 q 378 629 371 560 l 378 629 q 424 775 390 719 l 424 775 q 554 875 468 849 l 554 875 q 629 886 593 886 l 629 886 q 804 804 714 886 l 804 804 l 747 585 q 731 601 751 586 q 690 615 711 615 l 690 615 q 660 604 674 615 l 660 604 q 600 404 619 569 l 600 404 q 554 156 576 208 q 469 60 532 104 l 469 60 q 293 3 392 6 l 293 3 q 108 1 181 -1 l 108 1 q 53 8 51 4 l 53 8 z "},"t":{"ha":781,"x_min":22,"x_max":707,"o":"m 576 28 l 368 -4 q 274 593 368 -4 l 274 593 l 57 561 l 22 781 q 674 879 147 799 l 674 879 l 707 665 l 485 631 l 576 28 z "},"u":{"ha":944,"x_min":26,"x_max":856,"o":"m 850 631 l 850 631 q 856 506 856 563 l 856 506 q 735 129 856 281 l 735 129 q 447 0 631 0 l 447 0 q 275 24 335 0 l 275 24 q 133 151 194 57 l 133 151 q 63 278 78 238 l 63 278 q 26 500 26 367 l 26 500 q 33 635 26 561 l 33 635 q 71 883 56 860 l 71 883 l 340 839 q 308 582 308 690 l 308 582 q 311 499 308 542 l 311 499 q 350 396 315 439 l 350 396 q 453 349 390 347 l 453 349 q 535 400 499 351 l 535 400 q 574 488 565 442 l 574 488 q 583 615 583 557 l 583 615 q 546 843 583 715 l 546 843 l 807 876 q 850 631 822 821 z "},"v":{"ha":933,"x_min":18,"x_max":946,"o":"m 18 692 l 256 835 q 519 433 368 663 l 519 433 q 703 886 606 642 l 703 886 l 946 808 q 574 4 789 464 l 574 4 l 565 3 q 272 369 510 67 l 272 369 q 18 692 31 676 l 18 692 z "},"w":{"ha":1142,"x_min":19,"x_max":1157,"o":"m 19 825 l 261 883 q 346 662 271 849 q 425 454 421 475 l 425 454 q 581 667 436 469 l 581 667 q 701 432 601 633 l 701 432 q 820 622 711 436 q 949 853 929 807 l 949 853 l 1157 738 q 711 0 1149 722 l 711 0 q 624 99 701 1 l 624 99 q 544 203 553 188 l 544 203 q 349 22 547 199 l 349 22 q 186 404 268 213 l 186 404 q 19 825 44 740 l 19 825 z "},"x":{"ha":976,"x_min":24,"x_max":903,"o":"m 238 0 l 69 163 q 188 306 128 233 l 188 306 q 282 431 289 428 l 282 431 q 160 516 274 435 q 24 617 47 597 l 24 617 l 175 813 q 299 717 200 789 l 299 717 q 432 617 404 640 l 432 617 q 642 883 519 722 l 642 883 l 822 742 q 719 600 810 726 l 719 600 q 638 490 639 488 l 638 490 q 757 390 697 440 l 757 390 q 903 263 900 264 l 903 263 l 751 78 q 606 178 732 96 q 461 276 479 261 l 461 276 q 238 0 357 151 l 238 0 z "},"y":{"ha":1017,"x_min":22,"x_max":949,"o":"m 510 -1 l 238 38 q 269 268 244 85 l 269 268 q 150 508 271 281 l 150 508 q 22 738 29 732 l 22 738 l 243 883 q 446 515 246 876 l 446 515 q 594 667 450 528 q 754 813 739 806 l 754 813 l 949 626 q 743 433 940 621 q 546 242 546 246 l 546 242 q 510 -1 511 21 l 510 -1 z "},"z":{"ha":851,"x_min":15,"x_max":814,"o":"m 749 240 l 719 0 q 15 82 704 1 l 15 82 q 200 342 24 78 q 369 607 376 606 l 369 607 q 86 642 363 608 l 86 642 l 117 883 q 814 797 117 883 l 814 797 q 483 275 783 764 l 483 275 q 749 240 617 257 l 749 240 z "},"•":{"ha":585,"x_min":44,"x_max":478,"o":"m 261 193 l 261 193 q 415 257 351 193 q 478 410 478 321 l 478 410 q 415 563 478 500 q 261 626 351 626 l 261 626 q 108 563 172 626 q 44 410 44 500 l 44 410 q 108 257 44 321 q 261 193 172 193 z "}," ":{"ha":500,"x_min":null,"x_max":null,"o":""},"“":{"ha":814,"x_min":22,"x_max":724,"o":"m 283 881 l 283 881 l 433 568 l 363 510 l 100 763 q 22 878 22 814 l 22 878 q 56 961 22 922 l 56 961 q 210 1053 149 1053 l 210 1053 q 283 881 290 1053 z m 676 917 l 676 917 l 724 574 l 640 540 l 465 860 q 421 963 421 914 l 421 963 q 483 1063 421 1024 l 483 1063 q 629 1108 569 1108 l 629 1108 q 701 1032 701 1108 l 701 1032 q 676 917 701 988 z "},"”":{"ha":885,"x_min":29,"x_max":808,"o":"m 325 1050 l 325 1050 q 376 954 376 1008 l 376 954 q 319 846 376 901 l 319 846 l 108 549 l 29 593 l 117 928 q 104 1022 104 983 l 104 1022 q 172 1113 104 1113 l 172 1113 q 325 1050 233 1113 z m 786 939 l 786 939 q 808 865 808 904 l 808 865 q 715 749 808 792 l 715 749 l 419 533 l 358 601 l 550 890 q 636 1051 565 1051 l 636 1051 q 786 939 700 1051 z "},"‘":{"ha":453,"x_min":19,"x_max":447,"o":"m 51 1008 l 51 1008 q 19 926 19 969 l 19 926 q 103 810 19 860 l 103 810 l 378 563 l 447 624 l 285 935 q 207 1107 285 1107 l 207 1107 q 51 1008 143 1107 z "},"’":{"ha":531,"x_min":25,"x_max":453,"o":"m 421 1006 l 421 1006 q 453 924 453 968 l 453 924 q 369 807 453 857 l 369 807 l 94 560 l 25 622 l 188 933 q 265 1104 186 1104 l 265 1104 q 421 1006 329 1104 z "},"÷":{"ha":729,"x_min":18,"x_max":658,"o":"m 343 3 l 343 3 q 420 35 388 3 q 453 113 453 67 l 453 113 q 420 190 453 158 q 343 222 388 222 l 343 222 q 265 190 297 222 q 233 113 233 158 l 233 113 q 265 35 233 67 q 343 3 297 3 z m 18 247 l 647 292 l 658 524 l 31 479 l 18 247 z m 356 551 l 356 551 q 433 583 400 551 q 465 661 465 615 l 465 661 q 433 738 465 706 q 356 771 400 771 l 356 771 q 278 738 310 771 q 246 661 246 706 l 246 661 q 278 583 246 615 q 356 551 310 551 z "}}}
